<?xml version="1.0" standalone="no"?>
<!DOCTYPE svg PUBLIC "-//W3C//DTD SVG 20010904//EN"
 "http://www.w3.org/TR/2001/REC-SVG-20010904/DTD/svg10.dtd">
<svg version="1.0" xmlns="http://www.w3.org/2000/svg"
 width="567.000000pt" height="567.000000pt" viewBox="0 0 567.000000 567.000000"
 preserveAspectRatio="xMidYMid meet">
<metadata>
Created by potrace 1.14, written by Peter Selinger 2001-2017
</metadata>
<g transform="translate(0.000000,567.000000) scale(0.100000,-0.100000)"
fill="#000000" stroke="none">
<path d="M87 5656 c-45 -16 -63 -37 -77 -87 -7 -25 -9 -924 -8 -2755 3 -2539
4 -2721 20 -2750 35 -63 -175 -59 2813 -59 2209 0 2736 2 2761 13 16 7 39 27
50 45 19 31 19 78 19 2767 0 2213 -2 2741 -13 2766 -7 16 -27 39 -45 50 -31
19 -79 19 -2757 21 -2283 2 -2731 0 -2763 -11z"/>
</g>
</svg>
